<svg width="14" height="20" viewBox="0 0 14 20" fill="none" xmlns="http://www.w3.org/2000/svg">
<path d="M3.66669 5.00002V3.33335C3.66669 2.89133 3.84228 2.4674 4.15484 2.15484C4.4674 1.84228 4.89133 1.66669 5.33335 1.66669H8.66669C9.10872 1.66669 9.53264 1.84228 9.8452 2.15484C10.1578 2.4674 10.3334 2.89133 10.3334 3.33335V5.00002M12.8334 5.00002V16.6667C12.8334 17.1087 12.6578 17.5326 12.3452 17.8452C12.0326 18.1578 11.6087 18.3334 11.1667 18.3334H2.83335C2.39133 18.3334 1.9674 18.1578 1.65484 17.8452C1.34228 17.5326 1.16669 17.1087 1.16669 16.6667V5.00002H12.8334Z" stroke="#3D3D4D" stroke-width="1.5" stroke-linecap="round" stroke-linejoin="round"/>
</svg>
