<svg width="48" height="48" viewBox="0 0 48 48" fill="none" xmlns="http://www.w3.org/2000/svg">
<path d="M14.0383 44.2497H7.8653C6.77385 44.2497 5.72711 43.823 4.95534 43.0635C4.18357 42.304 3.75 41.2739 3.75 40.1998V26.0249C3.75 24.9507 4.18357 23.9206 4.95534 23.1611C5.72711 22.4016 6.77385 21.9749 7.8653 21.9749H14.0383M28.4418 17.9249V9.82496C28.4418 8.21378 27.7914 6.66859 26.6338 5.52932C25.4761 4.39004 23.906 3.75 22.2689 3.75L14.0383 21.9749V44.2497H37.2485C38.241 44.2608 39.2041 43.9185 39.9603 43.2859C40.7166 42.6533 41.215 41.773 41.3638 40.8073L44.2034 22.5824C44.2929 22.0019 44.2531 21.4093 44.0868 20.8454C43.9205 20.2816 43.6316 19.7601 43.2401 19.3171C42.8487 18.8741 42.364 18.5201 41.8198 18.2797C41.2755 18.0393 40.6846 17.9183 40.0881 17.9249H28.4418Z" stroke="#39B100" stroke-width="3" stroke-linecap="round" stroke-linejoin="round"/>
</svg>
